# xmcd
#
# Track frame offsets:
#	183
#	13583
#	30845
#	46390
#	61720
#	75433
#	101533
#	116343
#	132683
#	150643
#
# Disc length: 2203 seconds
#
# Revision: 0
# Processed by: cddbd v1.4PL0 Copyright (c) Steve Scherf et al.
# Submitted via: EasyCDDAExtractor 4.6.9.1
#
DISCID=6c08990a
DTITLE=Gerard Joling - Love Is In Your Eyes
DYEAR=1985
DGENRE=Ballad
TTITLE0=Love Is In Your Eyes
TTITLE1=I Can Only Give You Everything
TTITLE2=No Strings Attached
TTITLE3=What Can I Do
TTITLE4=Heartbeat
TTITLE5=Ticket To The Tropics
TTITLE6=Love Don't Pay
TTITLE7=We Don't Have To Say The Words
TTITLE8=Hearts On Fire
TTITLE9=Crying
EXTD=
EXTT0=
EXTT1=
EXTT2=
EXTT3=
EXTT4=
EXTT5=
EXTT6=
EXTT7=
EXTT8=
EXTT9=
PLAYORDER=
